HIERARCHY
ROOT Hips
{
	OFFSET 0.000000 97.167313 0.000000
	CHANNELS 6 Xposition Yposition Zposition Xrotation Yrotation Zrotation
	JOINT Spine
	{
		OFFSET 0.000000 13.784798 0.064400
		CHANNELS 3 Xrotation Yrotation Zrotation
		JOINT Spine1
		{
			OFFSET 0.000000 12.037903 0.404700
			CHANNELS 3 Xrotation Yrotation Zrotation
			JOINT Spine2
			{
				OFFSET 0.000000 17.795601 0.420200
				CHANNELS 3 Xrotation Yrotation Zrotation
				JOINT Neck
				{
					OFFSET 0.000000 39.131302 11.954600
					CHANNELS 3 Xrotation Yrotation Zrotation
					JOINT Head
					{
						OFFSET 0.000000 14.456192 15.627699
						CHANNELS 3 Xrotation Yrotation Zrotation
						JOINT HeadTop_End
						{
							OFFSET 0.000000 15.703506 7.603401
							CHANNELS 3 Xrotation Yrotation Zrotation
							End Site
							{
								OFFSET 0.000000 17.447403 0.000000
							}
						}
					}
				}
				JOINT LeftShoulder
				{
					OFFSET 17.399500 24.608795 1.168800
					CHANNELS 3 Xrotation Yrotation Zrotation
					JOINT LeftArm
					{
						OFFSET 18.980635 5.765305 1.818600
						CHANNELS 3 Xrotation Yrotation Zrotation
						JOINT LeftForeArm
						{
							OFFSET 49.290169 0.000000 0.000000
							CHANNELS 3 Xrotation Yrotation Zrotation
							JOINT LeftHand
							{
								OFFSET 31.562012 0.000000 0.000000
								CHANNELS 3 Xrotation Yrotation Zrotation
								JOINT LeftHandThumb1
								{
									OFFSET 6.133995 -4.388519 7.076070
									CHANNELS 3 Xrotation Yrotation Zrotation
									JOINT LeftHandThumb2
									{
										OFFSET 6.037666 -3.485840 3.485847
										CHANNELS 3 Xrotation Yrotation Zrotation
										JOINT LeftHandThumb3
										{
											OFFSET 6.496506 -3.750763 3.750761
											CHANNELS 3 Xrotation Yrotation Zrotation
											JOINT LeftHandThumb4
											{
												OFFSET 5.616882 -3.242905 3.242910
												CHANNELS 3 Xrotation Yrotation Zrotation
												End Site
												{
													OFFSET -1.254608 7.132141 0.375429
												}
											}
										}
									}
								}
								JOINT LeftHandPinky1
								{
									OFFSET 18.920792 -0.453171 -11.426712
									CHANNELS 3 Xrotation Yrotation Zrotation
									JOINT LeftHandPinky2
									{
										OFFSET 4.919586 0.000000 0.000000
										CHANNELS 3 Xrotation Yrotation Zrotation
										JOINT LeftHandPinky3
										{
											OFFSET 5.233047 0.000000 0.000000
											CHANNELS 3 Xrotation Yrotation Zrotation
											JOINT LeftHandPinky4
											{
												OFFSET 5.571716 0.000000 0.000000
												CHANNELS 3 Xrotation Yrotation Zrotation
												End Site
												{
													OFFSET -3.459808 4.342407 -0.466164
												}
											}
										}
									}
								}
								JOINT LeftHandRing1
								{
									OFFSET 22.726120 -0.094986 -6.500475
									CHANNELS 3 Xrotation Yrotation Zrotation
									JOINT LeftHandRing2
									{
										OFFSET 6.408615 0.000000 0.000000
										CHANNELS 3 Xrotation Yrotation Zrotation
										JOINT LeftHandRing3
										{
											OFFSET 6.150223 0.000000 0.000000
											CHANNELS 3 Xrotation Yrotation Zrotation
											JOINT LeftHandRing4
											{
												OFFSET 6.145386 0.000000 0.000000
												CHANNELS 3 Xrotation Yrotation Zrotation
												End Site
												{
													OFFSET -3.671402 4.923981 -0.202372
												}
											}
										}
									}
								}
								JOINT LeftHandMiddle1
								{
									OFFSET 23.373947 0.000000 0.000001
									CHANNELS 3 Xrotation Yrotation Zrotation
									JOINT LeftHandMiddle2
									{
										OFFSET 6.996567 0.000000 0.000000
										CHANNELS 3 Xrotation Yrotation Zrotation
										JOINT LeftHandMiddle3
										{
											OFFSET 7.015945 0.000000 0.000000
											CHANNELS 3 Xrotation Yrotation Zrotation
											JOINT LeftHandMiddle4
											{
												OFFSET 7.721573 0.000000 0.000000
												CHANNELS 3 Xrotation Yrotation Zrotation
												End Site
												{
													OFFSET -4.651108 6.158463 0.251582
												}
											}
										}
									}
								}
								JOINT LeftHandIndex1
								{
									OFFSET 21.310577 -0.490082 6.209344
									CHANNELS 3 Xrotation Yrotation Zrotation
									JOINT LeftHandIndex2
									{
										OFFSET 7.536453 0.000000 0.000000
										CHANNELS 3 Xrotation Yrotation Zrotation
										JOINT LeftHandIndex3
										{
											OFFSET 7.512344 0.000000 0.000000
											CHANNELS 3 Xrotation Yrotation Zrotation
											JOINT LeftHandIndex4
											{
												OFFSET 10.212402 0.000000 0.000001
												CHANNELS 3 Xrotation Yrotation Zrotation
												End Site
												{
													OFFSET -5.180801 8.690506 1.388433
												}
											}
										}
									}
								}
							}
						}
					}
				}
				JOINT RightShoulder
				{
					OFFSET -17.399500 24.608795 1.168800
					CHANNELS 3 Xrotation Yrotation Zrotation
					JOINT RightArm
					{
						OFFSET -18.980635 5.765305 1.818600
						CHANNELS 3 Xrotation Yrotation Zrotation
						JOINT RightForeArm
						{
							OFFSET -49.290169 0.000000 0.000000
							CHANNELS 3 Xrotation Yrotation Zrotation
							JOINT RightHand
							{
								OFFSET -31.562012 0.000000 0.000000
								CHANNELS 3 Xrotation Yrotation Zrotation
								JOINT RightHandThumb1
								{
									OFFSET -6.133995 -4.388519 7.076070
									CHANNELS 3 Xrotation Yrotation Zrotation
									JOINT RightHandThumb2
									{
										OFFSET -6.037666 -3.485840 3.485847
										CHANNELS 3 Xrotation Yrotation Zrotation
										JOINT RightHandThumb3
										{
											OFFSET -6.496506 -3.750763 3.750761
											CHANNELS 3 Xrotation Yrotation Zrotation
											JOINT RightHandThumb4
											{
												OFFSET -5.616882 -3.242905 3.242910
												CHANNELS 3 Xrotation Yrotation Zrotation
												End Site
												{
													OFFSET 1.254608 7.132141 0.375429
												}
											}
										}
									}
								}
								JOINT RightHandIndex1
								{
									OFFSET -21.310577 -0.490082 6.209344
									CHANNELS 3 Xrotation Yrotation Zrotation
									JOINT RightHandIndex2
									{
										OFFSET -7.536453 0.000000 0.000000
										CHANNELS 3 Xrotation Yrotation Zrotation
										JOINT RightHandIndex3
										{
											OFFSET -7.512344 0.000000 0.000000
											CHANNELS 3 Xrotation Yrotation Zrotation
											JOINT RightHandIndex4
											{
												OFFSET -10.212402 0.000000 0.000001
												CHANNELS 3 Xrotation Yrotation Zrotation
												End Site
												{
													OFFSET 5.180801 8.690506 1.388433
												}
											}
										}
									}
								}
								JOINT RightHandMiddle1
								{
									OFFSET -23.373947 0.000000 0.000001
									CHANNELS 3 Xrotation Yrotation Zrotation
									JOINT RightHandMiddle2
									{
										OFFSET -6.996567 0.000000 0.000000
										CHANNELS 3 Xrotation Yrotation Zrotation
										JOINT RightHandMiddle3
										{
											OFFSET -7.015945 0.000000 0.000000
											CHANNELS 3 Xrotation Yrotation Zrotation
											JOINT RightHandMiddle4
											{
												OFFSET -7.721573 0.000000 0.000000
												CHANNELS 3 Xrotation Yrotation Zrotation
												End Site
												{
													OFFSET 4.651108 6.158463 0.251582
												}
											}
										}
									}
								}
								JOINT RightHandRing1
								{
									OFFSET -22.726120 -0.094986 -6.500475
									CHANNELS 3 Xrotation Yrotation Zrotation
									JOINT RightHandRing2
									{
										OFFSET -6.408615 0.000000 0.000000
										CHANNELS 3 Xrotation Yrotation Zrotation
										JOINT RightHandRing3
										{
											OFFSET -6.150223 0.000000 0.000000
											CHANNELS 3 Xrotation Yrotation Zrotation
											JOINT RightHandRing4
											{
												OFFSET -6.145386 0.000000 0.000000
												CHANNELS 3 Xrotation Yrotation Zrotation
												End Site
												{
													OFFSET 3.671402 4.923981 -0.202372
												}
											}
										}
									}
								}
								JOINT RightHandPinky1
								{
									OFFSET -18.920792 -0.453171 -11.426712
									CHANNELS 3 Xrotation Yrotation Zrotation
									JOINT RightHandPinky2
									{
										OFFSET -4.919586 0.000000 0.000000
										CHANNELS 3 Xrotation Yrotation Zrotation
										JOINT RightHandPinky3
										{
											OFFSET -5.233047 0.000000 0.000000
											CHANNELS 3 Xrotation Yrotation Zrotation
											JOINT RightHandPinky4
											{
												OFFSET -5.571716 0.000000 0.000000
												CHANNELS 3 Xrotation Yrotation Zrotation
												End Site
												{
													OFFSET 3.459808 4.342407 -0.466164
												}
											}
										}
									}
								}
							}
						}
					}
				}
			}
		}
	}
	JOINT LeftUpLeg
	{
		OFFSET 19.899099 -7.885101 -3.429500
		CHANNELS 3 Xrotation Yrotation Zrotation
		JOINT LeftLeg
		{
			OFFSET 1.745560 -36.997807 10.304700
			CHANNELS 3 Xrotation Yrotation Zrotation
			JOINT LeftFoot
			{
				OFFSET -1.745558 -29.803308 -13.615400
				CHANNELS 3 Xrotation Yrotation Zrotation
				JOINT LeftToeBase
				{
					OFFSET 1.181900 -18.539904 15.226099
					CHANNELS 3 Xrotation Yrotation Zrotation
					JOINT LeftToe_End
					{
						OFFSET -0.863701 1.402801 16.534700
						CHANNELS 3 Xrotation Yrotation Zrotation
						End Site
						{
							OFFSET 0.000000 16.616566 0.000000
						}
					}
				}
			}
		}
	}
	JOINT RightUpLeg
	{
		OFFSET -19.899099 -7.885101 -3.429500
		CHANNELS 3 Xrotation Yrotation Zrotation
		JOINT RightLeg
		{
			OFFSET -1.745560 -36.997807 10.304700
			CHANNELS 3 Xrotation Yrotation Zrotation
			JOINT RightFoot
			{
				OFFSET 1.745558 -29.803308 -13.615400
				CHANNELS 3 Xrotation Yrotation Zrotation
				JOINT RightToeBase
				{
					OFFSET -1.181900 -18.539904 15.226099
					CHANNELS 3 Xrotation Yrotation Zrotation
					JOINT RightToe_End
					{
						OFFSET 0.863701 1.402801 16.534700
						CHANNELS 3 Xrotation Yrotation Zrotation
						End Site
						{
							OFFSET 0.000000 16.616566 0.000000
						}
					}
				}
			}
		}
	}
}
MOTION
Frames: 5
Frame Time: 0.033333
1.584743 91.459915 2.305603 -3.426734 3.852069 -4.645872 7.489913 -0.145603 0.656296 -2.114713 -0.634068 1.955413 -2.107417 -0.526125 1.991271 -6.842320 -2.682112 0.508907 2.526780 0.704226 0.466794 0.000000 0.000000 -0.000000 1.091371 1.577346 -3.543028 -1.207980 1.492960 -78.012781 20.698707 -13.799220 -0.079299 -0.026783 -3.262854 -0.409591 10.557737 -2.873399 25.085779 -5.464609 26.112187 -7.055909 -6.637390 3.827918 -2.616969 -0.000001 0.000001 0.000001 -6.472560 11.328366 -26.083972 10.724917 2.564171 -37.640353 6.422721 3.085377 -18.097288 0.000003 0.000001 -0.000000 -4.974042 10.108717 -16.316125 4.015812 4.053963 -38.804156 2.106480 3.150508 -21.139036 -0.000000 0.000000 0.000003 -1.984014 5.666917 -18.667991 0.265149 5.083982 -32.022649 -0.651679 1.115313 -16.743756 0.000000 0.000001 0.000001 2.374028 3.635806 -10.145577 -2.147141 2.448682 -20.340425 -1.878847 4.847400 -16.122945 -0.000000 0.000000 -0.000004 0.465990 5.360081 4.356340 -7.261347 4.763405 74.518942 13.988548 13.383111 -4.466963 0.106905 3.530099 -2.699106 15.566016 -0.729107 -16.762729 -6.578856 -24.369732 7.035379 -11.556308 5.740482 5.173472 -0.000000 0.000001 0.000001 2.252268 -2.297234 4.747746 -2.157538 -2.446998 14.947932 -1.896122 -4.843034 10.730384 -0.000000 -0.000001 -0.000001 -1.987023 -5.675197 8.743314 0.262152 -5.083487 22.099623 -0.656665 -1.127040 6.820172 -0.000003 0.000001 -0.000004 -4.977239 -10.112511 7.762484 4.013060 -4.043901 30.251505 2.108489 -3.150197 12.586667 -0.000002 -0.000002 -0.000007 -6.474179 -11.324405 16.980380 10.705857 -2.549801 28.535414 6.418211 -3.070424 8.992828 -0.000001 -0.000001 0.000000 -28.916791 -9.513700 -2.358849 48.073200 1.341352 0.962638 22.531143 2.113730 12.262492 -27.857755 0.295861 -5.807207 -0.000000 -0.000000 0.000001 -12.880477 -11.268525 10.443821 28.918143 -0.166918 -0.686728 15.171413 -0.566655 -8.386922 -28.228955 1.227904 0.120258 -0.000000 -0.000000 -0.000000 
1.795313 91.778122 6.080438 -2.401892 4.109759 -3.177764 5.047611 0.062153 0.444486 -1.262745 -0.348472 1.200354 -1.245271 -0.324831 1.256352 -7.442548 -2.542923 -0.060183 2.463328 0.449033 1.420430 0.000000 -0.000000 -0.000000 1.041034 1.185916 -3.022532 -1.241581 1.691757 -77.699180 21.049946 -14.916530 0.766464 -0.174902 -2.642411 -2.667683 10.551492 -2.879447 25.096396 -5.512527 26.027831 -7.059348 -6.652478 3.797269 -2.621148 0.000000 -0.000000 -0.000003 -6.474564 11.327204 -25.955936 10.724302 2.564515 -37.613684 6.422187 3.085758 -18.071113 -0.000001 -0.000004 -0.000001 -4.973696 10.106470 -16.222609 4.015852 4.052815 -38.763437 2.106176 3.149673 -21.098393 -0.000002 0.000001 0.000005 -1.993473 5.652150 -18.596744 0.262799 5.083800 -31.953438 -0.651602 1.114139 -16.674722 0.000000 0.000000 0.000009 2.371147 3.611850 -10.121414 -2.147685 2.447204 -20.266496 -1.881374 4.846688 -16.048648 -0.000000 0.000001 -0.000001 0.441241 4.461657 4.381221 -9.022884 4.291927 74.782034 18.369334 16.368521 -6.619335 -1.604227 3.692742 -3.312737 15.566076 -0.729162 -16.762751 -6.555571 -24.412725 7.036583 -11.514800 5.664529 5.149375 0.000001 -0.000001 0.000002 2.252076 -2.298524 4.811312 -2.157616 -2.448104 15.003870 -1.894269 -4.843769 10.786482 -0.000004 0.000000 0.000001 -1.986627 -5.676609 8.827088 0.264873 -5.084208 22.191993 -0.656894 -1.128644 6.912465 -0.000001 0.000000 -0.000004 -4.977748 -10.114156 7.839893 4.012755 -4.045938 30.336159 2.108804 -3.151730 12.671093 0.000000 -0.000000 -0.000005 -6.472048 -11.325587 17.060687 10.707116 -2.551364 28.626049 6.419656 -3.072129 9.083379 -0.000000 0.000001 0.000002 -31.887428 -8.427714 -5.216538 38.378662 -0.017079 0.956811 29.497046 3.823849 17.187710 -29.388607 0.654525 -8.395082 -0.000000 -0.000000 0.000001 -10.494344 -13.194351 8.425001 30.011998 0.773409 -0.693369 11.701909 -0.840910 -9.009580 -29.422580 1.185163 1.447853 -0.000000 -0.000000 -0.000000 
2.112929 92.806152 9.449089 -1.394990 3.832490 -1.558592 3.516861 0.474916 0.951758 -0.935096 0.051022 0.103818 -0.871157 0.005092 0.147363 -7.873460 -2.412119 -1.386572 1.893761 -0.161644 2.665319 0.000000 0.000000 -0.000000 1.064245 -0.056367 -2.692618 -0.295913 0.090562 -77.017684 18.196158 -16.263312 1.279193 -0.234629 -2.450931 -5.204521 10.545157 -2.885609 25.107251 -5.621448 25.870544 -7.050666 -6.688267 3.730460 -2.624435 0.000001 -0.000000 -0.000002 -6.475411 11.324225 -25.641237 10.724112 2.568640 -37.549347 6.420343 3.089821 -18.007138 0.000001 0.000000 -0.000002 -4.972622 10.102219 -15.992323 4.015886 4.050389 -38.663235 2.105458 3.147727 -20.998380 0.000001 -0.000002 -0.000000 -2.011704 5.612906 -18.421789 0.258363 5.083250 -31.782981 -0.651543 1.110855 -16.504695 0.000000 -0.000002 0.000004 2.361982 3.552680 -10.061871 -2.149953 2.443197 -20.084171 -1.884997 4.845325 -15.866002 -0.000000 0.000001 -0.000001 0.414724 3.189838 4.224913 -11.247203 1.432347 75.307589 24.076068 19.247968 -8.562714 -0.613058 4.912857 -3.189309 15.566105 -0.729179 -16.762783 -6.489793 -24.513476 7.036419 -11.412409 5.477579 5.090311 -0.000000 -0.000001 0.000001 2.251056 -2.313962 4.968011 -2.157698 -2.450855 15.141609 -1.889732 -4.845468 10.924611 -0.000001 -0.000002 0.000001 -1.985743 -5.680127 9.033251 0.271642 -5.085927 22.419587 -0.657456 -1.132713 7.139550 0.000002 0.000001 -0.000006 -4.978952 -10.113298 8.031032 4.012006 -4.050981 30.544309 2.109464 -3.152976 12.879094 -0.000001 -0.000003 -0.000003 -6.466811 -11.328471 17.258486 10.710187 -2.555227 28.849049 6.423307 -3.076421 9.306245 0.000002 -0.000002 -0.000001 -32.768451 -4.289371 -6.628007 27.665396 -4.950014 0.578303 31.920513 3.914672 16.380235 -25.159277 0.002952 -0.328675 -0.000000 0.000001 0.000000 -7.329681 -17.243639 6.795750 28.484597 3.745415 -0.783322 9.804735 -0.574854 -11.527043 -29.388146 1.180391 2.644274 -0.000000 0.000000 -0.000000 
2.603247 94.018356 12.220200 -0.235851 2.463145 -0.006579 2.996965 1.037029 1.540498 -1.280876 0.888023 -1.147814 -1.120883 0.735191 -1.183130 -8.110243 -2.296418 -2.503947 1.482973 -0.705893 3.759670 0.000000 0.000000 -0.000000 1.099579 -0.845917 -2.632800 1.342796 -2.554221 -76.380838 14.900389 -17.539719 2.183540 -0.075960 -2.075377 -6.737576 10.538742 -2.891857 25.118255 -5.778151 25.696101 -7.004903 -6.734727 3.652357 -2.619373 -0.000000 -0.000000 -0.000003 -6.475060 11.318843 -25.126369 10.727399 2.577716 -37.445102 6.417840 3.098866 -17.902658 -0.000000 0.000001 -0.000000 -4.970928 10.098763 -15.614828 4.015956 4.048119 -38.499440 2.104620 3.145709 -20.834642 0.000000 -0.000002 -0.000000 -2.039035 5.547676 -18.135604 0.254885 5.082094 -31.504200 -0.651938 1.105200 -16.226221 0.000000 0.000000 0.000008 2.345367 3.455805 -9.964228 -2.153061 2.437162 -19.785663 -1.887069 4.843551 -15.567229 0.000003 0.000003 0.000002 0.379221 2.146209 4.181862 -12.524674 1.069222 75.757610 25.222227 21.511387 -9.804144 2.349527 6.607484 -2.618187 15.566102 -0.729250 -16.762785 -6.383150 -24.679101 7.036905 -11.245318 5.171245 4.994602 -0.000003 -0.000003 0.000001 2.248012 -2.337781 5.224493 -2.156652 -2.455276 15.367296 -1.882270 -4.848236 11.150778 -0.000004 -0.000001 -0.000001 -1.984233 -5.685773 9.370867 0.271503 -5.089337 22.791469 -0.658319 -1.139367 7.511306 -0.000001 0.000000 -0.000004 -4.980955 -10.113193 8.343862 4.010808 -4.054801 30.884825 2.110499 -3.153103 13.219587 -0.000001 -0.000002 -0.000003 -6.462914 -11.332918 17.581621 10.715263 -2.561537 29.214150 6.429477 -3.076556 9.670411 -0.000001 -0.000002 -0.000001 -32.145893 3.480949 -6.127643 15.727054 -8.300166 0.243953 33.302585 0.833619 11.917407 -25.003371 0.001756 0.001332 0.000001 -0.000000 0.000001 -5.576613 -21.539384 4.913773 26.171275 7.093287 -0.753510 8.829777 1.079051 -14.357812 -29.111895 1.210309 3.236880 0.000000 -0.000000 0.000000 
3.067617 94.557602 14.765999 0.772447 1.182371 0.909973 2.699850 1.346434 1.511040 -1.867448 1.550258 -1.712162 -1.632235 1.345623 -1.818508 -7.893875 -1.820179 -3.354724 1.631483 -0.895179 5.053686 0.000000 0.000000 -0.000000 1.114376 -0.407418 -2.929828 2.727341 -3.362728 -76.031965 15.343858 -18.489843 3.897328 0.017750 -0.945327 -6.855097 10.532236 -2.898202 25.129338 -5.971762 25.536599 -6.912974 -6.782925 3.585057 -2.598070 -0.000000 -0.000001 0.000003 -6.474206 11.311703 -24.424859 10.735217 2.590783 -37.303553 6.417080 3.112555 -17.760549 -0.000001 -0.000001 -0.000002 -4.969035 10.097355 -15.100097 4.016101 4.046982 -38.276390 2.103998 3.144615 -20.611679 0.000001 0.000000 0.000007 -2.074891 5.458250 -17.745970 0.253733 5.080342 -31.124537 -0.652943 1.099031 -15.846666 0.000000 -0.000001 0.000001 2.322514 3.323714 -9.831290 -2.155538 2.431699 -19.378761 -1.887307 4.841118 -15.160197 -0.000000 -0.000000 0.000001 0.367911 1.809439 4.121965 -13.418701 0.881826 76.272565 25.235744 22.867803 -10.379196 4.758908 7.692081 -2.017091 15.566168 -0.729253 -16.762794 -6.237723 -24.904961 7.038179 -11.019001 4.753010 4.865970 -0.000000 -0.000003 0.000001 2.244751 -2.370062 5.574082 -2.155552 -2.461347 15.674721 -1.881780 -4.849232 11.458470 -0.000000 -0.000001 0.000001 -1.982090 -5.689143 9.831180 0.272289 -5.093776 23.298346 -0.658984 -1.143639 8.018076 0.000004 0.000001 -0.000001 -4.983604 -10.113179 8.770098 4.009226 -4.055231 31.348618 2.111974 -3.152949 13.683658 -0.000000 0.000001 0.000000 -6.462593 -11.338623 18.021019 10.722042 -2.565653 29.711097 6.433499 -3.077311 10.166549 0.000002 0.000001 0.000006 -31.927791 8.180290 -5.012470 4.125165 -8.728194 -1.656801 38.356430 0.237906 6.898934 -25.004484 0.001734 0.001467 -0.000000 -0.000001 -0.000000 -3.709225 -24.058795 3.793582 24.672609 8.074745 -0.696228 6.367380 2.903696 -16.752050 -29.357482 1.203348 3.647055 -0.000000 -0.000000 0.000000 
